
<svg width="48" height="48" viewBox="0 0 48 48" fill="none" xmlns="http://www.w3.org/2000/svg">
<circle cx="24" cy="24" r="23.5" stroke="#E6E7E7"/>
<path d="M35.7905 30.8599C35.3468 31.8847 34.8218 32.8281 34.2134 33.6954C33.3841 34.8777 32.7051 35.6961 32.1818 36.1506C31.3707 36.8966 30.5016 37.2786 29.5709 37.3004C28.9028 37.3004 28.097 37.1103 27.1591 36.7246C26.2181 36.3407 25.3534 36.1506 24.5627 36.1506C23.7334 36.1506 22.844 36.3407 21.8927 36.7246C20.9399 37.1103 20.1724 37.3112 19.5856 37.3312C18.6931 37.3692 17.8035 36.9763 16.9156 36.1506C16.3489 35.6563 15.64 34.8089 14.7908 33.6085C13.8797 32.3265 13.1306 30.84 12.5438 29.1452C11.9153 27.3147 11.6003 25.542 11.6003 23.8259C11.6003 21.8601 12.0251 20.1646 12.8759 18.7438C13.5445 17.6025 14.4341 16.7023 15.5475 16.0414C16.6608 15.3805 17.8638 15.0437 19.1593 15.0222C19.8682 15.0222 20.7978 15.2415 21.953 15.6724C23.1049 16.1048 23.8446 16.3241 24.1688 16.3241C24.4113 16.3241 25.233 16.0677 26.6259 15.5565C27.9431 15.0825 29.0549 14.8862 29.9656 14.9635C32.4335 15.1627 34.2876 16.1356 35.5207 17.8883C33.3135 19.2256 32.2217 21.0987 32.2434 23.5016C32.2633 25.3733 32.9423 26.9308 34.2768 28.1675C34.8815 28.7415 35.5569 29.1851 36.3083 29.5001C36.1453 29.9727 35.9733 30.4254 35.7905 30.8599ZM30.1304 8.58717C30.1304 10.0542 29.5944 11.4239 28.5262 12.6917C27.237 14.1989 25.6777 15.0698 23.9867 14.9324C23.9652 14.7564 23.9527 14.5712 23.9527 14.3765C23.9527 12.9682 24.5657 11.461 25.6545 10.2287C26.198 9.60475 26.8893 9.08595 27.7277 8.67209C28.5642 8.2644 29.3554 8.03894 30.0996 8.00034C30.1213 8.19645 30.1304 8.39258 30.1304 8.58715V8.58717Z" fill="#3C3D3D"/>
</svg>
