
<svg width="48" height="48" viewBox="0 0 48 48" fill="none" xmlns="http://www.w3.org/2000/svg">
<path d="M32 25C32.5523 25 33 24.5523 33 24C33 23.4477 32.5523 23 32 23V25ZM16 24L15.2929 23.2929C14.9024 23.6834 14.9024 24.3166 15.2929 24.7071L16 24ZM22.7071 18.7071C23.0976 18.3166 23.0976 17.6834 22.7071 17.2929C22.3166 16.9024 21.6834 16.9024 21.2929 17.2929L22.7071 18.7071ZM21.2929 30.7071C21.6834 31.0976 22.3166 31.0976 22.7071 30.7071C23.0976 30.3166 23.0976 29.6834 22.7071 29.2929L21.2929 30.7071ZM43 24C43 34.4934 34.4934 43 24 43V45C35.598 45 45 35.598 45 24H43ZM24 43C13.5066 43 5 34.4934 5 24H3C3 35.598 12.402 45 24 45V43ZM5 24C5 13.5066 13.5066 5 24 5V3C12.402 3 3 12.402 3 24H5ZM24 5C34.4934 5 43 13.5066 43 24H45C45 12.402 35.598 3 24 3V5ZM32 23H16V25H32V23ZM16.7071 24.7071L22.7071 18.7071L21.2929 17.2929L15.2929 23.2929L16.7071 24.7071ZM15.2929 24.7071L21.2929 30.7071L22.7071 29.2929L16.7071 23.2929L15.2929 24.7071Z" fill="#3C3D3D"/>
</svg>
