
<svg width="32" height="32" viewBox="0 0 32 32" fill="none" xmlns="http://www.w3.org/2000/svg">
<g clip-path="url(#clip0_116_2373)">
<path opacity="0.2" d="M26.721 5.37325C26.87 5.32978 27.0271 5.32161 27.1799 5.34938C27.3326 5.37715 27.4768 5.4401 27.601 5.53325C27.7252 5.6264 27.826 5.74718 27.8954 5.88604C27.9648 6.02489 28.001 6.17801 28.001 6.33325V23.6666C28.001 23.8218 27.9648 23.9749 27.8954 24.1138C27.826 24.2526 27.7252 24.3734 27.601 24.4666C27.4768 24.5597 27.3326 24.6227 27.1799 24.6504C27.0271 24.6782 26.87 24.67 26.721 24.6266L15.0002 21.208V8.79179L26.721 5.37325Z" fill="#01A3E0"/>
<path d="M28.001 6.33325V23.6666C28.001 23.8218 27.9648 23.9749 27.8954 24.1138C27.826 24.2526 27.7252 24.3734 27.601 24.4666C27.4768 24.5597 27.3326 24.6227 27.1799 24.6504C27.0271 24.6782 26.87 24.67 26.721 24.6266L4.72098 18.2099C4.51326 18.1493 4.3308 18.023 4.20098 17.8499C4.07116 17.6768 4.00098 17.4663 4.00098 17.2499V12.7499C4.00098 12.5335 4.07116 12.323 4.20098 12.1499C4.3308 11.9768 4.51326 11.8505 4.72098 11.7899L26.721 5.37325C26.87 5.32978 27.0271 5.32161 27.1799 5.34938C27.3326 5.37715 27.4768 5.4401 27.601 5.53325C27.7252 5.6264 27.826 5.74718 27.8954 5.88604C27.9648 6.02489 28.001 6.17801 28.001 6.33325V6.33325Z" stroke="#01A3E0" stroke-width="2" stroke-linecap="round" stroke-linejoin="round"/>
<path d="M9 19.4581V24C9 24.2652 9.10536 24.5196 9.29289 24.7071C9.48043 24.8946 9.73478 25 10 25H14C14.2652 25 14.5196 24.8946 14.7071 24.7071C14.8946 24.5196 15 24.2652 15 24V8.79187" stroke="#01A3E0" stroke-width="2" stroke-linecap="round" stroke-linejoin="round"/>
</g>
<defs>
<clipPath id="clip0_116_2373">
<rect width="32" height="32" fill="white" transform="matrix(-1 0 0 1 32 0)"/>
</clipPath>
</defs>
</svg>
