
<svg width="20" height="24" viewBox="0 0 20 24" fill="none" xmlns="http://www.w3.org/2000/svg">
<path d="M2.06058 23.4026C1.40071 23.6854 0.666656 23.2014 0.666656 22.4835V2.66667C0.666656 1.93333 0.92799 1.30533 1.45066 0.782667C1.97243 0.260889 2.59999 0 3.33332 0H16.6667C17.4 0 18.028 0.260889 18.5507 0.782667C19.0724 1.30533 19.3333 1.93333 19.3333 2.66667V22.4835C19.3333 23.2014 18.5993 23.6854 17.9394 23.4026L9.99999 20L2.06058 23.4026Z" fill="#0072AA"/>
<path d="M2.06058 23.4026C1.40071 23.6854 0.666656 23.2014 0.666656 22.4835V2.66667C0.666656 1.93333 0.92799 1.30533 1.45066 0.782667C1.97243 0.260889 2.59999 0 3.33332 0H16.6667C17.4 0 18.028 0.260889 18.5507 0.782667C19.0724 1.30533 19.3333 1.93333 19.3333 2.66667V22.4835C19.3333 23.2014 18.5993 23.6854 17.9394 23.4026L9.99999 20L2.06058 23.4026Z" stroke="#AFB0B1"/>
</svg>
