
<svg width="48" height="48" viewBox="0 0 48 48" fill="none" xmlns="http://www.w3.org/2000/svg">
<circle cx="24" cy="24" r="23.5" stroke="#E6E7E7"/>
<path d="M14.8137 28.1797C14.8137 30.0122 13.3192 31.509 11.4865 31.509C9.65397 31.509 8.15747 30.0122 8.15747 28.1797C8.15747 26.3472 9.65422 24.8505 11.4867 24.8505H14.814L14.8137 28.1797ZM16.491 28.1797C16.491 26.3472 17.9877 24.8505 19.8202 24.8505C21.6527 24.8505 23.1495 26.347 23.1495 28.1797V36.5135C23.1495 38.346 21.653 39.8427 19.8202 39.8427C17.9877 39.8427 16.491 38.346 16.491 36.5135V28.1797Z" fill="#DE1C59"/>
<path d="M19.8202 14.8138C17.9877 14.8138 16.491 13.3193 16.491 11.4865C16.491 9.654 17.9877 8.1575 19.8202 8.1575C21.6527 8.1575 23.1495 9.65425 23.1495 11.4868V14.814L19.8202 14.8138ZM19.8202 16.491C21.6527 16.491 23.1495 17.9878 23.1495 19.8203C23.1495 21.6528 21.653 23.1495 19.8202 23.1495H11.4865C9.65397 23.1495 8.15747 21.653 8.15747 19.8203C8.15747 17.9878 9.65422 16.491 11.4867 16.491H19.8202Z" fill="#35C5F0"/>
<path d="M33.1863 19.8203C33.1863 17.9878 34.6808 16.491 36.5135 16.491C38.346 16.491 39.8428 17.9878 39.8428 19.8203C39.8428 21.6528 38.346 23.1495 36.5135 23.1495H33.1863V19.8203ZM31.509 19.8203C31.509 21.6528 30.0123 23.1495 28.1798 23.1495C26.3473 23.1495 24.8505 21.653 24.8505 19.8203V11.4865C24.8505 9.654 26.347 8.1575 28.1798 8.1575C30.0123 8.1575 31.509 9.65425 31.509 11.4868V19.8203Z" fill="#2EB57D"/>
<path d="M28.1798 33.1862C30.0123 33.1862 31.509 34.6807 31.509 36.5135C31.509 38.346 30.0123 39.8427 28.1798 39.8427C26.3473 39.8427 24.8505 38.346 24.8505 36.5135V33.1862H28.1798ZM28.1798 31.509C26.3473 31.509 24.8505 30.0122 24.8505 28.1797C24.8505 26.3472 26.347 24.8505 28.1798 24.8505H36.5135C38.346 24.8505 39.8428 26.347 39.8428 28.1797C39.8428 30.0122 38.346 31.509 36.5135 31.509H28.1798Z" fill="#EBB02E"/>
</svg>
